<svg width="117" height="117" viewBox="0 0 117 117" fill="none" xmlns="http://www.w3.org/2000/svg">
<path d="M60.2101 29.8107C60.8454 29.6573 61.1272 29.9629 61.2491 30.4281C61.4612 31.2361 61.9848 31.6269 62.883 31.5709C62.9224 31.5708 62.9645 31.5756 63.0039 31.5853C64.1946 31.928 65.232 31.8618 65.9148 30.7037C65.9724 30.6056 66.2638 30.5534 66.4189 30.5849C67.7092 30.8489 67.7539 30.8537 67.8645 32.0859C67.9157 32.6591 68.1318 32.96 68.7075 33.135C69.1255 33.2614 69.5435 33.4466 69.8908 33.6933C70.5065 34.1279 71.0343 34.0581 71.6165 33.65C71.8761 33.4681 72.2801 33.2319 72.514 33.3073C72.9504 33.4484 73.3373 33.7733 73.6873 34.0788C73.7979 34.1741 73.7881 34.4853 73.7123 34.652C73.2995 35.589 73.5455 36.2842 74.4504 36.8505C74.8423 37.0946 75.127 37.4884 75.4982 37.8501C75.3225 37.9706 75.1861 38.0738 75.0419 38.1624C73.1535 39.3552 71.2677 40.5528 69.3635 41.726C69.1379 41.8638 68.8201 41.8866 68.5366 41.9289C67.8906 42.0235 67.242 42.0961 66.4883 42.1935C65.9168 41.5186 65.2556 40.7361 64.5892 39.9585C63.8359 39.0783 62.9922 38.8402 61.8557 39.2177C60.3176 39.7285 58.7902 40.2687 57.2522 40.7844C55.8375 41.2582 55.099 42.2033 55.0182 43.5829C54.8388 46.5724 54.6725 49.562 54.5246 52.554C54.472 53.6493 54.9622 54.3562 56.0587 54.8363C56.5211 53.7816 56.9862 52.7319 57.4434 51.6797C57.77 50.9292 58.0518 50.1445 58.8361 49.682C59.1902 49.4729 59.568 49.2736 59.9643 49.1599C61.9698 48.5867 63.9805 48.0356 65.9992 47.5041C66.2407 47.4398 66.5586 47.4733 66.79 47.5683C68.8356 48.4284 70.9634 47.3968 71.4156 45.3302C71.4676 45.09 71.6613 44.8176 71.879 44.675C73.2034 43.8118 74.5463 42.9756 75.8945 42.1467C76.8807 41.5392 78.0843 41.7863 78.7903 42.6642C78.9563 42.8696 79.2849 42.9644 79.5504 43.0912C79.632 43.1302 79.7501 43.1079 79.85 43.1174C81.006 43.2445 81.2561 43.4596 81.4031 44.5397C81.4245 44.7014 81.3043 44.9638 81.16 45.0475C80.1947 45.6182 80.0598 46.3266 80.2698 47.3772C80.4771 48.4058 80.7048 49.1819 81.9137 49.4388C82.074 49.4727 82.2639 49.7761 82.2748 49.9647C82.3461 51.2288 82.3409 51.2484 81.0786 51.7488C80.643 51.9213 80.4728 52.1398 80.4502 52.5809C80.4226 53.142 80.3215 53.7058 80.1731 54.25C80.0559 54.6791 80.1354 54.9803 80.5352 55.2121C80.6036 55.2511 80.6563 55.3098 80.7168 55.3611C81.5406 56.0599 81.6257 56.4762 81.0578 57.3768C80.9715 57.5142 80.6881 57.6374 80.512 57.6206C79.3298 57.5132 78.8532 58.1268 78.351 59.0419C77.8279 59.9938 77.6038 60.7465 78.3965 61.612C78.5071 61.7342 78.4764 62.0822 78.3691 62.2442C77.6938 63.2748 77.6755 63.2896 76.4324 63.0083C75.8831 62.8846 75.5024 62.9492 75.1383 63.3911C74.7716 63.8355 74.2707 64.1797 73.8804 64.6094C73.7153 64.7911 73.674 65.0778 73.6036 65.3255C73.5802 65.4064 73.6356 65.5091 73.6568 65.5997C73.9274 66.7433 73.8177 66.9861 72.6869 67.5278C72.5531 67.5919 72.2772 67.5582 72.1614 67.4654C71.2535 66.7545 70.4631 66.8789 69.4163 67.3886C68.3747 67.8958 67.7849 68.4141 67.8768 69.5263C67.8877 69.6732 67.6991 69.9065 67.5417 69.9803C66.3688 70.5197 66.2559 70.5199 65.4368 69.5933C65.0312 69.1336 64.6395 69.0096 64.0358 69.1801C63.5187 69.3259 62.9646 69.4105 62.4262 69.4191C61.9298 69.4301 61.6991 69.634 61.5687 70.0337C61.5218 70.1759 61.4144 70.3035 61.3753 70.4457C61.2191 71.0317 60.8333 71.1894 60.1951 71.1958C59.5148 71.2023 59.081 71.0539 58.9219 70.4074C58.7468 69.6973 58.2811 69.3407 57.4747 69.3769C57.2174 69.3898 56.9571 69.3193 56.6103 69.276C56.6108 69.4721 56.6112 69.6534 56.6116 69.8322C56.6797 74.1663 56.5165 78.4936 55.9305 82.7975C54.8847 90.4517 52.7061 97.7558 48.1984 104.333C46.7038 106.514 44.9828 108.533 43.0223 110.363C42.4824 110.866 42.3734 111.398 42.6637 112C43.5876 113.914 45.0907 115.312 47.1521 116.15C47.9855 116.491 48.3057 116.36 48.945 115.695C54.7411 109.69 58.4492 102.674 60.5742 94.8877C62.3945 88.2166 62.9615 81.4259 62.8455 74.5658C62.8332 73.7965 62.8418 73.0272 62.8899 72.2479C63.1928 73.7099 63.4773 75.1769 63.8039 76.6339C64.8657 81.3675 66.1166 86.0492 68.2022 90.501C69.1342 92.4908 70.2078 94.4165 71.827 96.0077C74.3756 98.5131 77.5571 99.8874 81.2091 100.251C88.0743 100.938 94.5408 97.4265 97.2509 91.5668C98.7457 88.3364 98.9243 85.0136 97.8788 81.6349C97.8179 81.4366 97.757 81.2383 97.6962 81.04C97.6909 81.0228 97.7013 81.0032 97.7013 80.9934C98.7626 81.0423 99.824 81.1354 100.885 81.1353C107.988 81.1357 114.394 76.382 115.897 69.915C117.191 64.3403 115.557 59.564 111.074 55.6789C109.558 54.3668 107.676 53.6117 105.741 52.9719C102.029 51.7433 98.1822 51.0884 94.2807 50.7522C90.8627 50.4589 87.4345 50.3004 84.0087 50.0831C83.9326 50.0784 83.8563 50.0639 83.7276 50.047C86.1589 49.6321 88.5431 49.2589 90.9114 48.8172C95.4457 47.971 99.9085 46.8897 104.162 45.1499C107.833 43.6491 110.77 41.4419 112.525 37.9831C116.954 29.2526 111.127 18.895 100.91 17.3633C98.4509 16.9943 96.0453 17.1788 93.6041 17.8559C93.6917 17.1329 93.7872 16.454 93.8539 15.7703C94.541 8.63388 89.2791 1.70021 81.0253 0.318256C74.1748 -0.829355 66.4598 2.352 63.7428 9.69411C62.4717 13.1273 61.6289 16.6403 61.1462 20.226C60.7487 23.1744 60.514 26.1421 60.2137 29.1026C60.1932 29.3035 60.2121 29.5093 60.2127 29.8009L60.2101 29.8107ZM68.3266 43.1104C69.3457 43.0835 70.2327 43.8654 70.2665 44.8209C70.3004 45.818 69.4723 46.6457 68.4138 46.6751C67.3658 46.7021 66.4709 45.9153 66.437 44.9304C66.4032 43.9578 67.2523 43.1374 68.3266 43.1104Z" fill="white"/>
<path d="M56.197 68.7653C55.6503 68.5379 55.1366 68.4588 54.7611 69.029C54.7393 69.0607 54.7093 69.0875 54.6821 69.1167C53.8211 69.9897 53.5891 70.0389 52.427 69.4846C52.2684 69.4095 52.104 69.1642 52.1145 69.0085C52.1858 67.9622 51.6274 67.4575 50.5775 66.971C49.4538 66.4506 48.5903 66.2946 47.6089 67.0535C47.4971 67.1413 47.1666 67.1202 47.0162 67.0354C45.8238 66.3692 45.802 66.3547 46.1268 65.14C46.2568 64.6531 46.1523 64.3468 45.7118 64.0413C45.2851 63.7456 44.88 63.3986 44.5596 63.0101C44.1734 62.5391 43.7472 62.489 43.1576 62.6291C42.0084 62.8994 41.4807 62.6574 41.0469 61.7023C40.9865 61.5687 41.0542 61.3228 41.1659 61.2033C41.9015 60.4134 41.7988 59.7154 41.2558 58.8044C40.691 57.8521 40.1731 57.1503 38.8324 57.2629C38.6658 57.2779 38.373 57.0329 38.307 56.8579C37.7793 55.453 37.6466 55.935 38.8406 54.9688C39.2795 54.6126 39.3907 54.3058 39.2421 53.8099C39.0769 53.2531 39.0645 52.662 38.9212 52.1004C38.8661 51.8913 38.658 51.6801 38.4583 51.5395C38.2504 51.394 37.9798 51.3022 37.7174 51.2396C37.1627 51.1047 37.0255 50.8131 36.9915 50.3047C36.9433 49.5653 37.1416 49.0953 38.0042 48.9205C38.6676 48.7851 39.0354 48.4315 38.9902 47.7748C38.9704 47.4829 39.0324 47.1689 39.141 46.8938C39.475 46.0513 39.225 45.4315 38.3745 44.9591C38.1694 44.8453 37.8956 44.571 37.928 44.4177C38.0279 43.9503 38.1414 43.4027 38.482 43.0832C38.7327 42.8491 39.3501 42.8938 39.8061 42.8806C40.2677 42.8649 40.5104 42.7013 40.6925 42.319C40.9697 41.7369 41.3617 41.1959 41.6443 40.6162C41.7422 40.4165 41.7006 40.1393 41.6427 39.9156C41.5931 39.7235 41.4506 39.539 41.3028 39.3836C40.8127 38.8739 40.9865 38.4599 41.3977 37.9651C41.779 37.5068 42.1555 37.3162 42.7568 37.5361C43.5769 37.8383 44.243 37.7151 44.7275 37.0036C44.8554 36.8159 45.0407 36.6355 45.2507 36.5231C46.1618 36.0295 46.2885 35.3456 45.9015 34.534C45.6682 34.0456 45.9215 33.7676 46.3634 33.533C46.8053 33.2984 47.1674 32.811 47.7749 33.2864C48.5465 33.8879 49.3414 33.9542 50.162 33.3367C50.3502 33.1952 50.5957 33.0827 50.8332 33.0359C51.8214 32.8487 52.0521 32.2181 51.9793 31.4592C51.9149 30.7928 52.4199 30.6748 52.9411 30.5057C53.4624 30.3342 53.921 30.2285 54.2773 30.7629C54.7734 31.5134 55.4705 31.7891 56.4283 31.4317C56.6712 31.3411 56.9688 31.3112 57.2338 31.3324C58.1735 31.4105 58.5738 30.9279 58.8152 30.2218C58.9617 29.7933 59.1847 29.4108 59.9144 29.594C59.8748 29.0248 59.8463 28.5116 59.8014 27.9984C59.3019 22.3507 58.6467 16.7253 56.7466 11.2828C55.9959 9.13647 55.0651 7.04893 53.4278 5.29392C50.7937 2.46599 47.384 0.834374 43.3134 0.32339C35.0765 -0.710515 27.3854 3.85693 25.2856 11.0264C24.6679 13.1346 24.5692 15.2683 25.0659 17.4129C25.099 17.5515 25.0911 17.6974 25.108 17.8969C23.3561 17.3926 21.6132 17.2118 19.8434 17.2184C12.3109 17.2411 5.36176 22.5804 4.20848 29.2002C3.34351 34.1651 4.86397 38.4529 8.83258 42.0075C10.4967 43.4973 12.6236 44.3972 14.775 45.212C19.2554 46.9092 23.9663 47.8979 28.7259 48.7211C30.7424 49.0691 32.7777 49.3343 34.8022 49.6409C34.9225 49.6601 35.0373 49.7036 35.327 49.7832C33.896 49.8425 32.6398 49.9014 31.3808 49.9458C26.8447 50.1073 22.3337 50.4951 17.8673 51.2306C14.8532 51.7267 11.8695 52.3517 9.08104 53.526C4.14526 55.6031 1.32691 59.1591 0.406727 63.8711C-0.837287 70.2382 2.63196 76.2875 9.08722 79.2305C12.2725 80.6826 15.6654 81.0444 19.1875 80.5763C19.3049 80.5614 19.4251 80.5538 19.4934 80.5488C19.2586 81.7584 18.9446 82.939 18.8109 84.1363C18.1234 90.2368 22.3741 96.4424 28.8057 98.6386C35.1718 100.813 40.965 99.8214 46.0875 95.8414C47.7422 94.5555 48.776 92.8355 49.7169 91.0963C51.4817 87.8346 52.7245 84.4015 53.5928 80.8793C54.5721 76.9067 55.3574 72.8957 56.2274 68.9014C56.2355 68.8674 56.2163 68.8285 56.2052 68.7701L56.197 68.7653Z" fill="white"/>
</svg>
